<svg xmlns="http://www.w3.org/2000/svg" viewBox="0 0 607.19 75.74"><defs><style>.cls-1{fill:#260100;}</style></defs><g id="Layer_2" data-name="Layer 2"><g id="Layer_1-2" data-name="Layer 1"><path class="cls-1" d="M408.63,30.23h0c-1.2-.35-2.41-.67-3.64-1l-2.12-.52c-9.61-2.45-11.24-4.07-11.24-6.78v-.19c0-2.77,3.05-4.62,7.59-4.62A24.06,24.06,0,0,1,411,20.52a41.29,41.29,0,0,1,4.38,2.86h0l0,0L428,10.89l0,0-2.11-1.69c-.65-.53-1.32-1-2-1.47A40.63,40.63,0,0,0,399.38,0c-15.22,0-26.27,9.59-26.27,22.81V23c0,11.67,6.6,17.1,15.08,20.37,1.77.68,3.61,1.27,5.49,1.8,1.44.41,2.9.78,4.37,1.14,10.62,2.45,12.56,4.28,12.56,7v.2c0,3.14-3.27,5.1-8.55,5.1-5.88,0-10.87-1.74-16.16-5.65-.94-.69-1.88-1.43-2.85-2.27l-1.17-1L369.35,62.2l2.19,2c.56.5,1.14.94,1.72,1.41l0,0a44.65,44.65,0,0,0,28.49,10.16c16.35,0,27.33-9.39,27.33-23.38v-.2C429.1,38.67,419.67,33.37,408.63,30.23Z"/><polygon class="cls-1" points="308.83 0.97 276.61 74.73 293.77 74.73 296.08 74.64 316.31 27.01 336.58 74.73 356.4 74.73 324.18 0.97 308.83 0.97"/><polygon class="cls-1" points="116.26 0.97 84.04 74.73 101.2 74.73 103.51 74.64 123.74 27.01 144.01 74.73 163.83 74.73 131.61 0.97 116.26 0.97"/><polygon class="cls-1" points="546.03 0.97 546.03 18.59 567.32 18.59 567.32 71.44 567.36 74.8 585.9 74.8 585.9 18.59 607.19 18.59 607.19 0.97 546.03 0.97"/><polygon class="cls-1" points="459.47 74.8 516.13 74.8 516.13 56.32 477.96 56.32 477.96 47.09 516.13 47.09 516.13 28.61 477.96 28.61 477.96 18.4 516.13 18.4 516.13 0.97 459.47 0.97 459.47 74.8"/><polygon class="cls-1" points="45.66 0.94 45.66 28.61 18.55 28.61 18.55 0.94 0 0.94 0.02 74.77 18.56 74.77 18.55 47.09 45.66 47.09 45.66 74.77 64.21 74.77 64.19 0.94 45.66 0.94"/><polygon class="cls-1" points="220.22 29.98 200.91 0.94 200.91 0.94 183.9 0.94 183.9 56.45 183.9 74.77 202.46 74.77 202.46 37.9 204.08 36.27 220.21 60.34 220.24 60.3 220.24 60.31 237.98 33.85 237.98 74.77 256.56 74.77 256.56 0.94 239.53 0.94 220.22 29.98"/></g></g></svg>