<svg xmlns="http://www.w3.org/2000/svg" viewBox="0 0 607.19 252.65"><defs><style>.cls-1{fill:#e23734;}.cls-2{fill:#260100;}</style></defs><g id="Layer_2" data-name="Layer 2"><g id="Layer_1-2" data-name="Layer 1"><rect class="cls-1" x="320.55" y="-20.16" width="62.94" height="292.97" transform="translate(190.37 -210.94) rotate(44.65)"/><path class="cls-2" d="M408.63,112.91h0c-1.2-.34-2.41-.67-3.64-1-.75-.17-1.45-.35-2.12-.52-9.61-2.44-11.24-4.07-11.24-6.78v-.19c0-2.76,3.05-4.62,7.59-4.62A24,24,0,0,1,411,103.21a39.79,39.79,0,0,1,4.38,2.86h0l0,0L428,93.57l0,0-2.11-1.69c-.65-.52-1.32-1-2-1.47a40.63,40.63,0,0,0-24.47-7.71c-15.22,0-26.27,9.6-26.27,22.82v.19c0,11.66,6.6,17.09,15.08,20.36,1.77.68,3.61,1.28,5.49,1.81,1.44.4,2.9.78,4.37,1.13,10.62,2.45,12.56,4.28,12.56,7v.19c0,3.15-3.27,5.1-8.55,5.1-5.88,0-10.87-1.73-16.16-5.65-.94-.69-1.88-1.43-2.85-2.26l-1.17-1-12.53,12.53,2.19,2c.56.49,1.14.94,1.72,1.4l0,0a44.66,44.66,0,0,0,28.49,10.17c16.35,0,27.33-9.4,27.33-23.39v-.19C429.1,121.36,419.67,116.06,408.63,112.91Z"/><polygon class="cls-2" points="308.83 83.65 276.61 157.42 293.77 157.42 296.08 157.32 316.31 109.69 336.58 157.42 356.4 157.42 324.18 83.65 308.83 83.65"/><polygon class="cls-2" points="116.26 83.65 84.04 157.42 101.2 157.42 103.51 157.32 123.74 109.69 144.01 157.42 163.83 157.42 131.61 83.65 116.26 83.65"/><polygon class="cls-2" points="546.03 83.65 546.03 101.27 567.32 101.27 567.32 154.13 567.36 157.48 585.9 157.48 585.9 101.27 607.19 101.27 607.19 83.65 546.03 83.65"/><polygon class="cls-2" points="459.47 157.48 516.13 157.48 516.13 139 477.96 139 477.96 129.78 516.13 129.78 516.13 111.3 477.96 111.3 477.96 101.08 516.13 101.08 516.13 83.65 459.47 83.65 459.47 157.48"/><polygon class="cls-2" points="45.66 83.62 45.66 111.3 18.55 111.3 18.55 83.62 0 83.62 0.02 157.45 18.56 157.45 18.55 129.78 45.66 129.78 45.66 157.45 64.21 157.45 64.19 83.62 45.66 83.62"/><polygon class="cls-2" points="220.22 112.67 200.91 83.62 200.91 83.62 183.9 83.62 183.9 139.14 183.9 157.45 202.46 157.45 202.46 120.58 204.08 118.96 220.21 143.02 220.24 142.99 220.24 143 237.98 116.54 237.98 157.45 256.56 157.45 256.56 83.62 239.53 83.62 220.22 112.67"/></g></g></svg>